{"title":"Raazi 2018 Hindi 720p WEB-DL x264 [MW]","magnet":"magnet:?xt=urn:btih:528e42e3848678f8df5ec76f23faf72b83170fdf&dn=Raazi+2018+Hindi+720p+WEB-DL+x264+%5BMW%5D&tr=udp%3A%2F%2Ftracker.leechers-paradise.org%3A6969&tr=udp%3A%2F%2Fzer0day.ch%3A1337&tr=udp%3A%2F%2Fopen.demonii.com%3A1337&tr=udp%3A%2F%2Ftracker.coppersurfer.tk%3A6969&tr=udp%3A%2F%2Fexodus.desync.com%3A6969","uploader":"MFreaky","categoryP":"video","categoryS":"hd___movies","size":"1356029318","seeders":"14","leechers":"75","description":" <a href=\"https://pichub.site/image/aKkGr\" rel=\"nofollow\" target=\"_NEW\">https://pichub.site/image/aKkGr</a> <a href=\"\nhttps://pichub.site/image/aKwZk\" rel=\"nofollow\" target=\"_NEW\">\nhttps://pichub.site/image/aKwZk</a> <a href=\"\nhttps://pichub.site/image/aKCIQ\" rel=\"nofollow\" target=\"_NEW\">\nhttps://pichub.site/image/aKCIQ</a> <a href=\"\nhttps://pichub.site/image/aKhAv\" rel=\"nofollow\" target=\"_NEW\">\nhttps://pichub.site/image/aKhAv</a> <a href=\"\nhttps://pichub.site/image/aKi6d\" rel=\"nofollow\" target=\"_NEW\">\nhttps://pichub.site/image/aKi6d</a>\r\n\r\nGeneral\r\nFormat : Matroska\r\nFormat version : Version 4 / Version 2\r\nFile size : 1.26 GiB\r\nDuration : 2 h 17 min\r\nOverall bit rate : 1 319 kb/s\r\n\r\nVideo\r\nID : 1\r\nFormat : AVC\r\nFormat/Info : Advanced Video Codec\r\nFormat profile : High@L4.1\r\nFormat settings : CABAC / 4 Ref Frames\r\nFormat settings, CABAC : Yes\r\nFormat settings, RefFrames : 4 frames\r\nCodec ID : V_MPEG4/ISO/AVC\r\nDuration : 2 h 17 min\r\nBit rate : 1 200 kb/s\r\nWidth : 1 280 pixels\r\nHeight : 544 pixels\r\nDisplay aspect ratio : 2.35:1\r\nFrame rate mode : Constant\r\nFrame rate : 25.000 FPS\r\nColor space : YUV\r\nChroma subsampling : 4:2:0\r\nBit depth : 8 bits\r\nScan type : Progressive\r\nBits/(Pixel*Frame) : 0.069\r\nStream size : 1.14 GiB (90%)\r\nWriting library : x264 core 155 r2901 7d0ff22\r\nDefault : Yes\r\nForced : No\r\n\r\nAudio\r\nID : 2\r\nFormat : AAC\r\nFormat/Info : Advanced Audio Codec\r\nFormat profile : LC\r\nCodec ID : A_AAC-2\r\nDuration : 2 h 17 min\r\nBit rate : 128 kb/s\r\nChannel(s) : 2 channels\r\nChannel positions : Front: L R\r\nSampling rate : 48.0 kHz\r\nFrame rate : 46.875 FPS (1024 SPF)\r\nCompression mode : Lossy\r\nStream size : 126 MiB (10%)\r\nDefault : Yes\r\nForced : No","last_updated":"2018-07-16T12:03:34.593Z","parsed":{"xt":"urn:btih:528e42e3848678f8df5ec76f23faf72b83170fdf","dn":"Raazi 2018 Hindi 720p WEB-DL x264 [MW]","tr":["udp://exodus.desync.com:6969","udp://open.demonii.com:1337","udp://tracker.coppersurfer.tk:6969","udp://tracker.leechers-paradise.org:6969","udp://zer0day.ch:1337"],"infoHash":"528e42e3848678f8df5ec76f23faf72b83170fdf","infoHashBuffer":{"type":"Buffer","data":[82,142,66,227,132,134,120,248,223,94,199,111,35,250,247,43,131,23,15,223]},"name":"Raazi 2018 Hindi 720p WEB-DL x264 [MW]","announce":["udp://exodus.desync.com:6969","udp://open.demonii.com:1337","udp://tracker.coppersurfer.tk:6969","udp://tracker.leechers-paradise.org:6969","udp://zer0day.ch:1337"],"urlList":[]}}